<svg xmlns="http://www.w3.org/2000/svg" version="1.1" xmlns:xlink="http://www.w3.org/1999/xlink" xmlns:svgjs="http://svgjs.dev/svgjs" width="1500" height="462" viewBox="0 0 1500 462"><g transform="matrix(1,0,0,1,-0.9090909090909918,0.6654836616100397)"><svg viewBox="0 0 396 122" data-background-color="#ffffff" preserveAspectRatio="xMidYMid meet" height="462" width="1500" xmlns="http://www.w3.org/2000/svg" xmlns:xlink="http://www.w3.org/1999/xlink"><g id="tight-bounds" transform="matrix(1,0,0,1,0.2400000000000091,-0.1757337807714805)"><svg viewBox="0 0 395.52 122.35146756154295" height="122.35146756154295" width="395.52"><g><svg viewBox="0 0 395.52 122.35146756154295" height="122.35146756154295" width="395.52"><g><svg viewBox="0 0 395.52 122.35146756154295" height="122.35146756154295" width="395.52"><g id="textblocktransform"><svg viewBox="0 0 395.52 122.35146756154295" height="122.35146756154295" width="395.52" id="textblock"><g><svg viewBox="0 0 395.52 79.99139803153773" height="79.99139803153773" width="395.52"><g transform="matrix(1,0,0,1,0,0)"><svg width="395.52" viewBox="0.45 -36.65 181.699648445808 36.75" height="79.99139803153773" data-palette-color="#6a2055"><g class="wordmark-text-0" data-fill-palette-color="primary" id="text-0"><path d="M6.1-25.3L6.1-25.3Q3.6-25.3 2.02-26.75 0.45-28.2 0.45-30.75L0.45-30.75Q0.45-33.25 1.88-34.77 3.3-36.3 6.1-36.3L6.1-36.3 27.65-36.3Q30.45-36.3 31.88-34.77 33.3-33.25 33.3-30.75L33.3-30.75Q33.3-28.2 31.73-26.75 30.15-25.3 27.65-25.3L27.65-25.3Q25.95-25.3 24.93-25.68 23.9-26.05 23.25-26.58 22.6-27.1 22-27.48 21.4-27.85 20.5-27.85L20.5-27.85 20.05-26.95Q20.25-26.5 20.75-25.68 21.25-24.85 21.7-23.33 22.15-21.8 22.15-19.2L22.15-19.2 22.15-4.75Q22.15-2.7 20.63-1.35 19.1 0 16.9 0L16.9 0Q14.65 0 13.13-1.35 11.6-2.7 11.6-4.75L11.6-4.75 11.6-19.2Q11.6-21.8 12.05-23.33 12.5-24.85 13.03-25.68 13.55-26.5 13.75-26.95L13.75-26.95 13.25-27.85Q12.35-27.85 11.75-27.48 11.15-27.1 10.5-26.58 9.85-26.05 8.85-25.68 7.85-25.3 6.1-25.3ZM39.4 0L39.4 0Q36.05-0.5 35.05-3.08 34.05-5.65 35.45-9.6L35.45-9.6 42.05-28.35Q42.95-30.95 44.12-32.8 45.3-34.65 47.07-35.65 48.85-36.65 51.5-36.65L51.5-36.65Q55.5-36.65 57.52-34.45 59.55-32.25 60.9-28.35L60.9-28.35 67.45-9.6Q68.85-5.65 67.97-3.08 67.1-0.5 63.7 0L63.7 0Q60.95 0.35 58.92-0.65 56.9-1.65 56.5-3.9L56.5-3.9Q56.2-5.4 56.42-6.4 56.65-7.4 56.85-8L56.85-8Q57-8.5 56.87-8.97 56.75-9.45 56.1-9.45L56.1-9.45 46.8-9.45Q46.15-9.45 46.02-8.97 45.9-8.5 46.1-8L46.1-8Q46.3-7.4 46.5-6.4 46.7-5.4 46.45-3.9L46.45-3.9Q46.05-1.65 44.1-0.65 42.15 0.35 39.4 0ZM47.85-16.45L55.15-16.45 52.55-24.6Q52.45-25.1 52.22-25.38 52-25.65 51.5-25.65L51.5-25.65Q51-25.65 50.77-25.38 50.55-25.1 50.4-24.6L50.4-24.6 47.85-16.45ZM76.1 0L76.1 0Q73.65 0 72.22-1.35 70.8-2.7 70.8-5.3L70.8-5.3 70.8-12.35Q70.8-17.65 72.4-20.4 74-23.15 76.45-24.35L76.45-24.35 76.2-25.3 75.35-25.3Q73.05-25.3 71.72-26.78 70.4-28.25 70.35-30.8L70.35-30.8Q70.3-33.3 71.67-34.8 73.05-36.3 75.35-36.3L75.35-36.3 92.85-36.3Q98.2-36.3 98.2-31.3L98.2-31.3Q98.2-29.05 96.9-27.7 95.6-26.35 92.85-26.35L92.85-26.35 83.1-26.35Q81.25-26.35 81.25-24.2L81.25-24.2 81.25-20.6Q83.6-21.25 86.15-22.1 88.7-22.95 91.05-22.95L91.05-22.95Q93.55-22.95 94.92-21.73 96.3-20.5 96.3-18L96.3-18Q96.3-15.55 94.92-14.33 93.55-13.1 91.05-13.05L91.05-13.05Q88.7-13 86.12-13.83 83.55-14.65 81.2-15.3L81.2-15.3 81.15-5.3Q81.15-2.7 79.77-1.35 78.4 0 76.1 0ZM105.64 0.1L105.64 0.1Q103.34 0.1 101.89-1.3 100.44-2.7 100.44-4.85L100.44-4.85 100.44-31.3Q100.44-33.5 101.87-35 103.29-36.5 105.64-36.5L105.64-36.5Q108.14-36.5 109.57-35.02 110.99-33.55 110.99-31.4L110.99-31.4 110.99-4.85Q110.99-2.7 109.47-1.3 107.94 0.1 105.64 0.1ZM114.64-26.75L114.64-26.75Q113.19-29.85 113.99-32.33 114.79-34.8 117.04-35.8L117.04-35.8Q119.34-36.8 121.72-35.83 124.09-34.85 125.19-31.75L125.19-31.75Q125.74-30.2 125.99-28.18 126.24-26.15 126.57-24.28 126.89-22.4 127.67-21.18 128.44-19.95 130.09-19.95L130.09-19.95Q131.74-19.95 132.54-21.18 133.34-22.4 133.67-24.28 133.99-26.15 134.22-28.18 134.44-30.2 134.99-31.75L134.99-31.75Q136.14-34.85 138.49-35.83 140.84-36.8 143.14-35.8L143.14-35.8Q145.39-34.8 146.19-32.33 146.99-29.85 145.54-26.75L145.54-26.75Q144.79-25.15 143.57-23.73 142.34-22.3 140.89-20.8 139.44-19.3 137.99-17.48 136.54-15.65 135.34-13.3L135.34-13.3 135.34-4.75Q135.34-2.7 133.84-1.35 132.34 0 130.09 0L130.09 0Q127.89 0 126.37-1.35 124.84-2.7 124.84-4.75L124.84-4.75 124.84-13.3Q123.69-15.65 122.24-17.48 120.79-19.3 119.34-20.8 117.89-22.3 116.64-23.73 115.39-25.15 114.64-26.75ZM153.24 0L153.24 0Q149.89-0.5 148.89-3.08 147.89-5.65 149.29-9.6L149.29-9.6 155.89-28.35Q156.79-30.95 157.96-32.8 159.14-34.65 160.91-35.65 162.69-36.65 165.34-36.65L165.34-36.65Q169.34-36.65 171.36-34.45 173.39-32.25 174.74-28.35L174.74-28.35 181.29-9.6Q182.69-5.65 181.81-3.08 180.94-0.5 177.54 0L177.54 0Q174.79 0.35 172.76-0.65 170.74-1.65 170.34-3.9L170.34-3.9Q170.04-5.4 170.26-6.4 170.49-7.4 170.69-8L170.69-8Q170.84-8.5 170.71-8.97 170.59-9.45 169.94-9.45L169.94-9.45 160.64-9.45Q159.99-9.45 159.86-8.97 159.74-8.5 159.94-8L159.94-8Q160.14-7.4 160.34-6.4 160.54-5.4 160.29-3.9L160.29-3.9Q159.89-1.65 157.94-0.65 155.99 0.35 153.24 0ZM161.69-16.45L168.99-16.45 166.39-24.6Q166.29-25.1 166.06-25.38 165.84-25.65 165.34-25.65L165.34-25.65Q164.84-25.65 164.61-25.38 164.39-25.1 164.24-24.6L164.24-24.6 161.69-16.45Z" fill="#6a2055" data-fill-palette-color="primary"></path></g></svg></g></svg></g><g transform="matrix(1,0,0,1,0,98.87544731323104)"><svg viewBox="0 0 266.77824 23.47602024831192" height="23.47602024831192" width="266.77824"><g transform="matrix(1,0,0,1,0,0)"><svg width="266.77824" viewBox="-0.1 -39.65 459.04 40.4" height="23.47602024831192" data-palette-color="#b10dc9"><path d="M24.95 0L18.5 0 16.8-8.1 7.9-8.1 6.25 0-0.1 0 8.6-34.55 16.3-34.55 24.95 0ZM12.35-29.7L8.9-12.9 15.85-12.9 12.35-29.7ZM37.4-33.05Q36-33.05 35.32-32.3 34.65-31.55 34.65-30L34.65-30 34.65-26.45 39.7-26.45 39-22 34.65-22 34.65 0 28.5 0 28.5-22 25.2-22 25.2-26.45 28.5-26.45 28.5-29.8Q28.5-33.4 30.6-35.55 32.7-37.7 36.6-37.7L36.6-37.7Q39.65-37.7 42.5-36.2L42.5-36.2 40.8-32.2Q39.05-33.05 37.4-33.05L37.4-33.05ZM54.15-27.1Q55.3-27.1 56.2-26.75L56.2-26.75 55.2-20.85Q54.2-21.1 53.35-21.1L53.35-21.1Q51.45-21.1 50.35-19.45 49.25-17.8 48.65-14.55L48.65-14.55 48.65 0 42.5 0 42.5-26.45 47.85-26.45 48.3-21.85Q50.15-27.1 54.15-27.1L54.15-27.1ZM59.04-26.45L65.19-26.45 65.19 0 59.04 0 59.04-26.45ZM62.09-39.65Q63.74-39.65 64.77-38.6 65.79-37.55 65.79-35.9L65.79-35.9Q65.79-34.3 64.77-33.25 63.74-32.2 62.09-32.2L62.09-32.2Q60.44-32.2 59.42-33.25 58.39-34.3 58.39-35.9L58.39-35.9Q58.39-37.55 59.42-38.6 60.44-39.65 62.09-39.65L62.09-39.65ZM80.39-27.15Q82.54-27.15 84.29-26.43 86.04-25.7 87.64-24.15L87.64-24.15 84.99-20.65Q83.89-21.55 82.92-21.98 81.94-22.4 80.79-22.4L80.79-22.4Q78.54-22.4 77.39-20.28 76.24-18.15 76.24-13.1L76.24-13.1Q76.24-8.2 77.42-6.2 78.59-4.2 80.79-4.2L80.79-4.2Q81.89-4.2 82.79-4.6 83.69-5 84.89-5.85L84.89-5.85 87.64-2.3Q84.44 0.75 80.49 0.75L80.49 0.75Q75.39 0.75 72.57-2.73 69.74-6.2 69.74-13L69.74-13Q69.74-17.4 71.04-20.6 72.34-23.8 74.77-25.48 77.19-27.15 80.39-27.15L80.39-27.15ZM107.59-6.4Q107.59-5.1 107.94-4.48 108.29-3.85 109.09-3.45L109.09-3.45 107.84 0.65Q105.79 0.4 104.56-0.45 103.34-1.3 102.74-3.05L102.74-3.05Q100.44 0.75 96.29 0.75L96.29 0.75Q92.99 0.75 91.04-1.48 89.09-3.7 89.09-7.4L89.09-7.4Q89.09-11.7 91.76-13.95 94.44-16.2 99.54-16.2L99.54-16.2 101.59-16.2 101.59-18.05Q101.59-20.55 100.71-21.58 99.84-22.6 97.89-22.6L97.89-22.6Q95.54-22.6 92.04-21.3L92.04-21.3 90.64-25.3Q92.64-26.2 94.79-26.68 96.94-27.15 98.89-27.15L98.89-27.15Q107.59-27.15 107.59-18.35L107.59-18.35 107.59-6.4ZM97.94-3.7Q100.34-3.7 101.59-7L101.59-7 101.59-12.55 100.14-12.55Q97.59-12.55 96.41-11.4 95.24-10.25 95.24-7.85L95.24-7.85Q95.24-5.8 95.94-4.75 96.64-3.7 97.94-3.7L97.94-3.7ZM136.18-37.7L142.33-37.05 142.33 0 136.88 0 136.58-3.05Q134.23 0.75 130.53 0.75L130.53 0.75Q126.43 0.75 124.26-2.93 122.08-6.6 122.08-13.2L122.08-13.2Q122.08-17.4 123.21-20.58 124.33-23.75 126.33-25.45 128.33-27.15 130.93-27.15L130.93-27.15Q134.13-27.15 136.18-24.5L136.18-24.5 136.18-37.7ZM132.28-3.9Q133.43-3.9 134.36-4.7 135.28-5.5 136.18-7L136.18-7 136.18-19.85Q134.58-22.55 132.53-22.55L132.53-22.55Q128.48-22.55 128.48-13.25L128.48-13.25Q128.48-8.2 129.48-6.05 130.48-3.9 132.28-3.9L132.28-3.9ZM166.88-13.85Q166.88-13.4 166.73-11.3L166.73-11.3 153.08-11.3Q153.28-7.2 154.51-5.58 155.73-3.95 157.98-3.95L157.98-3.95Q159.53-3.95 160.78-4.48 162.03-5 163.48-6.15L163.48-6.15 166.03-2.65Q162.53 0.75 157.63 0.75L157.63 0.75Q152.43 0.75 149.66-2.85 146.88-6.45 146.88-13L146.88-13Q146.88-19.55 149.53-23.35 152.18-27.15 157.03-27.15L157.03-27.15Q161.68-27.15 164.28-23.78 166.88-20.4 166.88-13.85L166.88-13.85ZM160.88-15.3L160.88-15.65Q160.88-19.4 159.98-21.13 159.08-22.85 157.08-22.85L157.08-22.85Q155.23-22.85 154.26-21.18 153.28-19.5 153.08-15.3L153.08-15.3 160.88-15.3ZM178.53-27.15Q183.23-27.15 186.48-24.05L186.48-24.05 184.13-20.7Q182.73-21.7 181.48-22.2 180.23-22.7 178.93-22.7L178.93-22.7Q177.48-22.7 176.65-21.93 175.83-21.15 175.83-19.8L175.83-19.8Q175.83-18.45 176.75-17.63 177.68-16.8 180.48-15.7L180.48-15.7Q183.93-14.35 185.58-12.5 187.23-10.65 187.23-7.55L187.23-7.55Q187.23-3.7 184.53-1.48 181.83 0.75 177.68 0.75L177.68 0.75Q174.98 0.75 172.7-0.23 170.43-1.2 168.73-2.95L168.73-2.95 171.73-6.25Q174.53-3.8 177.43-3.8L177.43-3.8Q179.08-3.8 180.03-4.67 180.98-5.55 180.98-7.1L180.98-7.1Q180.98-8.25 180.58-8.97 180.18-9.7 179.18-10.33 178.18-10.95 176.18-11.7L176.18-11.7Q172.73-13.05 171.25-14.85 169.78-16.65 169.78-19.45L169.78-19.45Q169.78-22.8 172.15-24.98 174.53-27.15 178.53-27.15L178.53-27.15ZM209.93-13.85Q209.93-13.4 209.78-11.3L209.78-11.3 196.13-11.3Q196.33-7.2 197.55-5.58 198.78-3.95 201.03-3.95L201.03-3.95Q202.58-3.95 203.83-4.48 205.08-5 206.53-6.15L206.53-6.15 209.08-2.65Q205.58 0.75 200.68 0.75L200.68 0.75Q195.48 0.75 192.7-2.85 189.93-6.45 189.93-13L189.93-13Q189.93-19.55 192.58-23.35 195.23-27.15 200.08-27.15L200.08-27.15Q204.73-27.15 207.33-23.78 209.93-20.4 209.93-13.85L209.93-13.85ZM203.93-15.3L203.93-15.65Q203.93-19.4 203.03-21.13 202.13-22.85 200.13-22.85L200.13-22.85Q198.28-22.85 197.3-21.18 196.33-19.5 196.13-15.3L196.13-15.3 203.93-15.3ZM225.87-27.1Q227.02-27.1 227.92-26.75L227.92-26.75 226.92-20.85Q225.92-21.1 225.07-21.1L225.07-21.1Q223.17-21.1 222.07-19.45 220.97-17.8 220.37-14.55L220.37-14.55 220.37 0 214.22 0 214.22-26.45 219.57-26.45 220.02-21.85Q221.87-27.1 225.87-27.1L225.87-27.1ZM243.17-26.45L249.22-26.45 242.32 0 235.07 0 227.97-26.45 234.32-26.45 238.67-4.95 243.17-26.45ZM270.97-13.85Q270.97-13.4 270.82-11.3L270.82-11.3 257.17-11.3Q257.37-7.2 258.59-5.58 259.82-3.95 262.07-3.95L262.07-3.95Q263.62-3.95 264.87-4.48 266.12-5 267.57-6.15L267.57-6.15 270.12-2.65Q266.62 0.75 261.72 0.75L261.72 0.75Q256.52 0.75 253.74-2.85 250.97-6.45 250.97-13L250.97-13Q250.97-19.55 253.62-23.35 256.27-27.15 261.12-27.15L261.12-27.15Q265.77-27.15 268.37-23.78 270.97-20.4 270.97-13.85L270.97-13.85ZM264.97-15.3L264.97-15.65Q264.97-19.4 264.07-21.13 263.17-22.85 261.17-22.85L261.17-22.85Q259.32-22.85 258.34-21.18 257.37-19.5 257.17-15.3L257.17-15.3 264.97-15.3ZM282.62-27.15Q287.32-27.15 290.57-24.05L290.57-24.05 288.22-20.7Q286.82-21.7 285.57-22.2 284.32-22.7 283.02-22.7L283.02-22.7Q281.57-22.7 280.74-21.93 279.92-21.15 279.92-19.8L279.92-19.8Q279.92-18.45 280.84-17.63 281.77-16.8 284.57-15.7L284.57-15.7Q288.02-14.35 289.67-12.5 291.32-10.65 291.32-7.55L291.32-7.55Q291.32-3.7 288.62-1.48 285.92 0.75 281.77 0.75L281.77 0.75Q279.07 0.75 276.79-0.23 274.52-1.2 272.82-2.95L272.82-2.95 275.82-6.25Q278.62-3.8 281.52-3.8L281.52-3.8Q283.17-3.8 284.12-4.67 285.07-5.55 285.07-7.1L285.07-7.1Q285.07-8.25 284.67-8.97 284.27-9.7 283.27-10.33 282.27-10.95 280.27-11.7L280.27-11.7Q276.82-13.05 275.34-14.85 273.87-16.65 273.87-19.45L273.87-19.45Q273.87-22.8 276.24-24.98 278.62-27.15 282.62-27.15L282.62-27.15ZM316.16-5L318.31-1.2Q315.86 0.75 312.56 0.75L312.56 0.75Q309.11 0.75 307.31-1.23 305.51-3.2 305.51-6.6L305.51-6.6 305.51-22 302.41-22 302.41-26.45 305.51-26.45 305.51-32.3 311.66-33.05 311.66-26.45 316.66-26.45 316.06-22 311.66-22 311.66-6.6Q311.66-4.2 313.71-4.2L313.71-4.2Q314.36-4.2 314.86-4.38 315.36-4.55 316.16-5L316.16-5ZM333.21-27.15Q336.06-27.15 337.71-25.1 339.36-23.05 339.36-19.6L339.36-19.6 339.36 0 333.21 0 333.21-18.9Q333.21-20.8 332.68-21.63 332.16-22.45 331.16-22.45L331.16-22.45Q329.06-22.45 327.01-18.5L327.01-18.5 327.01 0 320.86 0 320.86-37 327.01-37.65 327.01-23.3Q328.26-25.25 329.73-26.2 331.21-27.15 333.21-27.15L333.21-27.15ZM363.76-13.85Q363.76-13.4 363.61-11.3L363.61-11.3 349.96-11.3Q350.16-7.2 351.38-5.58 352.61-3.95 354.86-3.95L354.86-3.95Q356.41-3.95 357.66-4.48 358.91-5 360.36-6.15L360.36-6.15 362.91-2.65Q359.41 0.75 354.51 0.75L354.51 0.75Q349.31 0.75 346.53-2.85 343.76-6.45 343.76-13L343.76-13Q343.76-19.55 346.41-23.35 349.06-27.15 353.91-27.15L353.91-27.15Q358.56-27.15 361.16-23.78 363.76-20.4 363.76-13.85L363.76-13.85ZM357.76-15.3L357.76-15.65Q357.76-19.4 356.86-21.13 355.96-22.85 353.96-22.85L353.96-22.85Q352.11-22.85 351.13-21.18 350.16-19.5 349.96-15.3L349.96-15.3 357.76-15.3ZM390.05-27.15Q393.9-27.15 395.95-23.65 398-20.15 398-13.25L398-13.25Q398-6.75 395.7-3 393.4 0.75 389.4 0.75L389.4 0.75Q387.65 0.75 386.2-0.13 384.75-1 383.7-2.55L383.7-2.55 383.35 0 377.9 0 377.9-37 384.05-37.65 384.05-23.6Q385.1-25.3 386.63-26.23 388.15-27.15 390.05-27.15L390.05-27.15ZM387.75-3.9Q389.6-3.9 390.63-6 391.65-8.1 391.65-13.25L391.65-13.25Q391.65-18.6 390.73-20.58 389.8-22.55 388.1-22.55L388.1-22.55Q386.95-22.55 385.9-21.6 384.85-20.65 384.05-19.1L384.05-19.1 384.05-6.7Q384.7-5.45 385.68-4.67 386.65-3.9 387.75-3.9L387.75-3.9ZM421.45-13.85Q421.45-13.4 421.3-11.3L421.3-11.3 407.65-11.3Q407.85-7.2 409.07-5.58 410.3-3.95 412.55-3.95L412.55-3.95Q414.1-3.95 415.35-4.48 416.6-5 418.05-6.15L418.05-6.15 420.6-2.65Q417.1 0.75 412.2 0.75L412.2 0.75Q407 0.75 404.22-2.85 401.45-6.45 401.45-13L401.45-13Q401.45-19.55 404.1-23.35 406.75-27.15 411.6-27.15L411.6-27.15Q416.25-27.15 418.85-23.78 421.45-20.4 421.45-13.85L421.45-13.85ZM415.45-15.3L415.45-15.65Q415.45-19.4 414.55-21.13 413.65-22.85 411.65-22.85L411.65-22.85Q409.8-22.85 408.82-21.18 407.85-19.5 407.65-15.3L407.65-15.3 415.45-15.3ZM433.1-27.15Q437.8-27.15 441.05-24.05L441.05-24.05 438.7-20.7Q437.3-21.7 436.05-22.2 434.8-22.7 433.5-22.7L433.5-22.7Q432.05-22.7 431.22-21.93 430.4-21.15 430.4-19.8L430.4-19.8Q430.4-18.45 431.32-17.63 432.25-16.8 435.05-15.7L435.05-15.7Q438.5-14.35 440.15-12.5 441.8-10.65 441.8-7.55L441.8-7.55Q441.8-3.7 439.1-1.48 436.4 0.75 432.25 0.75L432.25 0.75Q429.55 0.75 427.27-0.23 425-1.2 423.3-2.95L423.3-2.95 426.3-6.25Q429.1-3.8 432-3.8L432-3.8Q433.65-3.8 434.6-4.67 435.55-5.55 435.55-7.1L435.55-7.1Q435.55-8.25 435.15-8.97 434.75-9.7 433.75-10.33 432.75-10.95 430.75-11.7L430.75-11.7Q427.3-13.05 425.82-14.85 424.35-16.65 424.35-19.45L424.35-19.45Q424.35-22.8 426.72-24.98 429.1-27.15 433.1-27.15L433.1-27.15ZM456.79-5L458.94-1.2Q456.49 0.75 453.19 0.75L453.19 0.75Q449.74 0.75 447.94-1.23 446.14-3.2 446.14-6.6L446.14-6.6 446.14-22 443.04-22 443.04-26.45 446.14-26.45 446.14-32.3 452.29-33.05 452.29-26.45 457.29-26.45 456.69-22 452.29-22 452.29-6.6Q452.29-4.2 454.34-4.2L454.34-4.2Q454.99-4.2 455.49-4.38 455.99-4.55 456.79-5L456.79-5Z" opacity="1" transform="matrix(1,0,0,1,0,0)" fill="#b10dc9" class="slogan-text-1" data-fill-palette-color="secondary" id="text-1"></path></svg></g></svg></g></svg></g></svg></g></svg></g><defs></defs></svg><rect width="395.52" height="122.35146756154295" fill="none" stroke="none" visibility="hidden"></rect></g></svg></g></svg>